<?xml version="1.0" standalone="no"?>
<!DOCTYPE svg PUBLIC "-//W3C//DTD SVG 20010904//EN"
 "http://www.w3.org/TR/2001/REC-SVG-20010904/DTD/svg10.dtd">
<svg version="1.0" xmlns="http://www.w3.org/2000/svg"
 width="579.000000pt" height="579.000000pt" viewBox="0 0 579.000000 579.000000"
 preserveAspectRatio="xMidYMid meet">
<metadata>
Created by potrace 1.11, written by Peter Selinger 2001-2013
</metadata>
<g transform="translate(0.000000,579.000000) scale(0.100000,-0.100000)"
fill="#000000" stroke="none">
<path d="M3492 4383 c-7 -7 -12 -14 -12 -17 0 -4 -47 -84 -99 -166 -8 -14 -16
-27 -16 -30 0 -3 -8 -16 -17 -30 -30 -45 -168 -282 -168 -288 0 -3 -11 -20
-25 -38 -14 -18 -25 -35 -25 -39 0 -3 -25 -46 -55 -96 -30 -50 -55 -92 -55
-94 0 -2 -24 -43 -53 -92 -30 -48 -67 -112 -83 -140 -16 -29 -32 -53 -37 -53
-9 0 -69 93 -99 154 -12 25 -26 46 -30 46 -4 0 -8 4 -8 9 0 11 -130 229 -179
301 -21 30 -40 60 -42 65 -4 9 -249 423 -285 483 l-14 22 -352 0 c-340 0 -351
-1 -368 -20 -10 -11 -23 -34 -30 -50 -7 -17 -16 -30 -21 -30 -5 0 -9 -4 -9 -9
0 -6 -30 -61 -66 -123 -37 -62 -75 -127 -85 -145 -10 -17 -29 -50 -43 -72 -15
-22 -26 -43 -26 -47 0 -3 -13 -26 -30 -51 -16 -24 -30 -48 -30 -53 0 -5 -6
-15 -13 -22 -21 -24 -137 -225 -137 -239 0 -4 -4 -9 -8 -11 -4 -1 -34 -50 -67
-107 -33 -56 -65 -110 -70 -120 -32 -52 -124 -210 -149 -254 -16 -29 -33 -53
-38 -55 -4 -2 -8 -8 -8 -13 0 -5 -18 -39 -40 -75 -22 -36 -40 -70 -40 -75 0
-5 -4 -9 -9 -9 -5 0 -19 -21 -31 -46 -12 -26 -28 -53 -36 -61 -8 -8 -12 -18
-9 -23 3 -5 2 -10 -3 -12 -8 -3 -35 -47 -87 -143 -15 -27 -33 -57 -39 -65 -6
-8 -23 -35 -36 -60 -25 -47 -63 -106 -80 -127 -5 -7 -10 -15 -10 -18 0 -4 -18
-37 -40 -75 -22 -38 -40 -75 -40 -84 0 -8 16 -41 34 -72 19 -32 33 -61 31 -65
-3 -4 2 -9 10 -13 8 -3 15 -12 15 -21 0 -8 5 -15 12 -15 6 0 9 -3 5 -6 -3 -4
-1 -12 6 -20 30 -33 37 -44 31 -44 -4 0 0 -8 8 -17 8 -10 37 -56 63 -103 27
-47 53 -88 58 -91 5 -3 9 -10 9 -15 0 -5 14 -33 30 -61 27 -49 33 -53 66 -54
21 0 174 0 341 0 333 0 325 -1 351 62 7 16 16 29 21 29 5 0 9 5 9 11 0 6 22
48 49 93 73 122 88 147 112 190 12 22 28 46 35 54 8 7 17 24 20 38 3 13 10 24
14 24 4 0 10 8 14 18 3 9 18 37 33 62 14 25 33 57 42 72 242 413 263 448 272
448 3 0 19 -24 34 -52 16 -29 40 -71 54 -93 44 -69 51 -80 58 -95 4 -8 35 -61
70 -119 35 -57 63 -106 63 -109 0 -3 11 -17 25 -32 24 -25 70 -100 81 -132 4
-10 11 -18 16 -18 5 0 6 -5 3 -10 -3 -6 -2 -10 3 -10 5 0 15 -12 23 -27 24
-46 168 -287 177 -299 5 -6 12 -19 16 -30 3 -10 16 -32 29 -47 l22 -28 338 0
c185 0 341 2 346 5 7 5 52 77 146 237 6 10 35 59 65 109 30 51 68 116 84 144
15 28 43 74 60 101 18 28 57 93 86 145 71 126 200 342 213 358 8 10 14 8 28
-7 11 -11 19 -27 19 -36 0 -8 4 -15 9 -15 5 0 11 -8 15 -17 7 -22 57 -106 66
-113 4 -3 13 -20 21 -37 8 -18 16 -33 20 -33 3 0 11 -16 19 -35 8 -19 16 -35
20 -35 3 0 17 -21 30 -47 14 -26 40 -69 58 -97 18 -28 35 -61 38 -73 4 -13 10
-23 14 -23 4 0 17 -19 29 -42 23 -47 43 -80 52 -88 3 -3 16 -25 30 -50 13 -24
39 -67 57 -94 17 -28 32 -55 32 -61 0 -5 16 -32 35 -59 19 -27 35 -55 35 -63
0 -7 4 -13 9 -13 5 0 11 -12 13 -27 l3 -28 340 -1 c187 -1 346 1 353 3 6 3 12
11 12 18 0 7 3 15 8 17 10 4 54 68 56 81 1 7 9 23 18 37 8 14 39 66 68 115 29
50 68 113 86 142 19 28 34 54 34 56 0 3 18 35 41 72 44 73 44 74 -2 145 -15
24 -102 170 -139 235 -10 17 -31 54 -49 83 -17 29 -31 57 -31 62 0 6 -4 10 -8
10 -5 0 -14 16 -22 35 -8 20 -22 43 -32 52 -10 9 -18 21 -18 28 0 6 -6 17 -12
24 -7 6 -13 15 -14 19 -2 14 -18 47 -25 52 -11 7 -249 410 -249 421 0 5 -4 9
-10 9 -5 0 -10 4 -10 9 0 5 -47 89 -105 186 -58 97 -105 178 -105 181 0 3 -17
31 -37 63 -51 79 -97 155 -98 161 0 3 -8 16 -16 30 -64 102 -79 128 -79 138 0
7 -4 12 -10 12 -5 0 -10 6 -10 13 0 8 -13 32 -28 53 -16 21 -31 46 -35 54 -4
8 -18 33 -32 55 -14 22 -30 49 -35 60 -6 11 -28 49 -50 84 -22 34 -40 67 -40
72 0 12 26 11 -361 13 -264 1 -349 -1 -357 -11z"/>
</g>
</svg>
